<svg width="24" height="24" viewBox="0 0 24 24" fill="none" xmlns="http://www.w3.org/2000/svg">
<path d="M13.25 21.5501C12.56 22.1401 11.43 22.1401 10.73 21.5501L9.14999 20.1899C8.84999 19.9299 8.29001 19.72 7.89001 19.72H6.19C5.13 19.72 4.26001 18.85 4.26001 17.79V16.09C4.26001 15.7 4.05001 15.13 3.79001 14.83L2.42999 13.25C1.83999 12.56 1.83999 11.43 2.42999 10.73L3.79001 9.15003C4.05001 8.85003 4.26001 8.29002 4.26001 7.89002V6.18995C4.26001 5.12995 5.13 4.26002 6.19 4.26002H7.89001C8.28001 4.26002 8.84999 4.05004 9.14999 3.79004L10.73 2.43006C11.42 1.84006 12.55 1.84006 13.25 2.43006L14.83 3.79004C15.13 4.05004 15.69 4.26002 16.09 4.26002H17.82C18.88 4.26002 19.75 5.12995 19.75 6.18995V7.90003C19.75 8.29003 19.96 8.85003 20.21 9.15003L21.56 10.74C22.14 11.43 22.14 12.55 21.56 13.24L20.21 14.83C19.96 15.13 19.75 15.69 19.75 16.08V17.79C19.75 18.85 18.88 19.72 17.82 19.72H16.09C15.7 19.72 15.13 19.9299 14.83 20.1899L13.25 21.5501Z" stroke="#171717" stroke-width="1.5" stroke-linecap="round" stroke-linejoin="round"/>
<path d="M14.11 9.18002L12.66 8.06002C12.47 7.87002 12.05 7.77999 11.77 7.77999H10C9.44 7.77999 8.83 8.19997 8.69 8.75997L7.57001 12.18C7.34001 12.83 7.75999 13.4 8.45999 13.4H10.33C10.61 13.4 10.84 13.6299 10.8 13.9599L10.57 15.4599C10.48 15.8799 10.76 16.35 11.18 16.49C11.55 16.63 12.02 16.44 12.21 16.16L14.13 13.31" stroke="#171717" stroke-width="1.5" stroke-miterlimit="10"/>
<path d="M16.5 9.18005V13.76C16.5 14.42 16.22 14.65 15.56 14.65H15.09C14.44 14.65 14.15 14.42 14.15 13.76V9.18005C14.15 8.53005 14.43 8.29004 15.09 8.29004H15.56C16.22 8.29004 16.5 8.52005 16.5 9.18005Z" stroke="#171717" stroke-width="1.5" stroke-linecap="round" stroke-linejoin="round"/>
</svg>
