<svg width="24" height="24" viewBox="0 0 24 24" fill="none" xmlns="http://www.w3.org/2000/svg">
<path d="M12 6.75232C11.5858 6.75232 11.25 6.41653 11.25 6.00232C11.25 5.58811 11.5858 5.25232 12 5.25232C12.4142 5.25232 12.75 5.58811 12.75 6.00232C12.75 6.41653 12.4142 6.75232 12 6.75232Z" stroke="#0F172A" stroke-width="1.5" stroke-linecap="round" stroke-linejoin="round"/>
<path d="M12 12.7523C11.5858 12.7523 11.25 12.4165 11.25 12.0023C11.25 11.5881 11.5858 11.2523 12 11.2523C12.4142 11.2523 12.75 11.5881 12.75 12.0023C12.75 12.4165 12.4142 12.7523 12 12.7523Z" stroke="#0F172A" stroke-width="1.5" stroke-linecap="round" stroke-linejoin="round"/>
<path d="M12 18.7523C11.5858 18.7523 11.25 18.4165 11.25 18.0023C11.25 17.5881 11.5858 17.2523 12 17.2523C12.4142 17.2523 12.75 17.5881 12.75 18.0023C12.75 18.4165 12.4142 18.7523 12 18.7523Z" stroke="#0F172A" stroke-width="1.5" stroke-linecap="round" stroke-linejoin="round"/>
</svg>
