<svg width="24" height="25" viewBox="0 0 24 25" fill="none" xmlns="http://www.w3.org/2000/svg">
<path d="M16.8617 4.50059L18.5492 2.81309C19.2814 2.08086 20.4686 2.08086 21.2008 2.81309C21.9331 3.54532 21.9331 4.73251 21.2008 5.46474L10.5822 16.0834C10.0535 16.6121 9.40144 17.0007 8.68489 17.2141L6 18.0139L6.79978 15.329C7.01323 14.6125 7.40185 13.9604 7.93052 13.4317L16.8617 4.50059ZM16.8617 4.50059L19.5 7.13891M18 14.0139V18.7639C18 20.0065 16.9926 21.0139 15.75 21.0139H5.25C4.00736 21.0139 3 20.0065 3 18.7639V8.26391C3 7.02127 4.00736 6.01391 5.25 6.01391H10" stroke="#0F172A" stroke-width="1.5" stroke-linecap="round" stroke-linejoin="round"/>
</svg>
